<?xml version="1.0" standalone="no"?>
<!DOCTYPE svg PUBLIC "-//W3C//DTD SVG 20010904//EN"
 "http://www.w3.org/TR/2001/REC-SVG-20010904/DTD/svg10.dtd">
<svg version="1.0" xmlns="http://www.w3.org/2000/svg"
 width="16.000000pt" height="16.000000pt" viewBox="0 0 16.000000 16.000000"
 preserveAspectRatio="xMidYMid meet">
<metadata>
Created by potrace 1.11, written by Peter Selinger 2001-2013
</metadata>
<g transform="translate(0.000000,16.000000) scale(0.001491,-0.001491)"
fill="#000000" stroke="none">
<path d="M5184 10618 c-507 -405 -1033 -909 -1466 -1403 -198 -227 -442 -557
-703 -955 -926 -1406 -1491 -2788 -1620 -3960 -119 -1091 117 -2007 711 -2755
121 -151 421 -449 584 -579 310 -245 714 -491 1063 -646 758 -335 1688 -405
2697 -204 333 66 783 200 981 292 266 123 601 353 843 581 637 598 995 1338
1075 2221 14 148 14 553 0 717 -109 1327 -799 2862 -2058 4578 -453 618 -1002
1285 -1442 1752 -194 206 -358 356 -495 451 l-31 21 -139 -111z m327 -3430
c306 -302 562 -604 834 -983 505 -704 797 -1322 906 -1920 19 -100 22 -159 23
-355 1 -208 -2 -248 -22 -348 -91 -447 -333 -813 -706 -1064 -161 -107 -304
-166 -561 -229 -530 -129 -1034 -94 -1443 101 -505 241 -855 607 -1002 1047
-73 222 -84 295 -84 578 -1 215 3 268 22 380 97 557 357 1161 767 1780 206
311 372 513 621 755 205 199 451 410 478 410 7 0 83 -69 167 -152z"/>
</g>
</svg>
